<svg width="661.8px" height="101.6px" xmlns="http://www.w3.org/2000/svg" viewBox="-80.91752929687499 24.189379882812503 661.83505859375 101.621240234375" style="background: rgba(0, 0, 0, 0)" preserveAspectRatio="xMidYMid"><defs><filter id="editing-hole" x="-100%" y="-100%" width="300%" height="300%"><feFlood flood-color="#000000" result="black"></feFlood><feMorphology operator="dilate" radius="2" in="SourceGraphic" result="erode"></feMorphology><feGaussianBlur in="erode" stdDeviation="4" result="blur"></feGaussianBlur><feOffset in="blur" dx="2" dy="2" result="offset"></feOffset><feComposite operator="atop" in="offset" in2="black" result="merge"></feComposite><feComposite operator="in" in="merge" in2="SourceGraphic" result="inner-shadow"></feComposite></filter></defs><g filter="url(#editing-hole)"><g transform="translate(11.8,104.3)"><path d="M 55.1 -61.6 L 61.5 -61.6 L 61.5 -16.8 L 55.1 -16.8 L 55.1 -61.6 Z M 112.8 -44 L 98.8 -44 L 98.8 -16.8 L 92.6 -16.8 L 92.6 -44 L 78.5 -44 L 78.5 -16.8 L 72.4 -16.8 L 72.4 -50.1 L 78.5 -50.1 L 78.5 -44.2 L 78.5 -44.2 Q 78.6 -45.5 79.1 -46.5 L 79.1 -46.5 L 79.1 -46.5 Q 79.6 -47.6 80.4 -48.4 L 80.4 -48.4 L 80.4 -48.4 Q 81.3 -49.2 82.3 -49.7 L 82.3 -49.7 L 82.3 -49.7 Q 83.4 -50.1 84.7 -50.1 L 84.7 -50.1 L 92.6 -50.1 L 92.6 -50.1 Q 93.8 -50.1 94.9 -49.7 L 94.9 -49.7 L 94.9 -49.7 Q 96 -49.2 96.9 -48.4 L 96.9 -48.4 L 96.9 -48.4 Q 97.7 -47.6 98.2 -46.5 L 98.2 -46.5 L 98.2 -46.5 Q 98.8 -45.5 98.8 -44.2 L 98.8 -44.2 L 98.8 -44.2 Q 98.8 -45.5 99.3 -46.5 L 99.3 -46.5 L 99.3 -46.5 Q 99.8 -47.6 100.6 -48.4 L 100.6 -48.4 L 100.6 -48.4 Q 101.5 -49.2 102.6 -49.7 L 102.6 -49.7 L 102.6 -49.7 Q 103.7 -50.1 104.9 -50.1 L 104.9 -50.1 L 112.8 -50.1 L 112.8 -50.1 Q 114.1 -50.1 115.3 -49.6 L 115.3 -49.6 L 115.3 -49.6 Q 116.4 -49.1 117.2 -48.3 L 117.2 -48.3 L 117.2 -48.3 Q 118 -47.5 118.5 -46.4 L 118.5 -46.4 L 118.5 -46.4 Q 119 -45.2 119 -44 L 119 -44 L 119 -16.8 L 112.8 -16.8 L 112.8 -44 Z M 129.3 -23 L 129.3 -31.4 L 129.3 -31.4 Q 129.3 -32.6 129.7 -33.8 L 129.7 -33.8 L 129.7 -33.8 Q 130.2 -34.9 131 -35.7 L 131 -35.7 L 131 -35.7 Q 131.9 -36.6 133 -37 L 133 -37 L 133 -37 Q 134.1 -37.5 135.4 -37.5 L 135.4 -37.5 L 151.3 -37.5 L 151.3 -44 L 131.2 -44 L 131.2 -50.1 L 151.3 -50.1 L 151.3 -50.1 Q 152.5 -50.1 153.7 -49.6 L 153.7 -49.6 L 153.7 -49.6 Q 154.8 -49.1 155.6 -48.3 L 155.6 -48.3 L 155.6 -48.3 Q 156.4 -47.5 156.9 -46.4 L 156.9 -46.4 L 156.9 -46.4 Q 157.4 -45.2 157.4 -44 L 157.4 -44 L 157.4 -16.8 L 151.3 -16.8 L 151.3 -22.5 L 151.3 -22.5 Q 151.2 -21.3 150.6 -20.3 L 150.6 -20.3 L 150.6 -20.3 Q 150.1 -19.2 149.3 -18.5 L 149.3 -18.5 L 149.3 -18.5 Q 148.4 -17.7 147.4 -17.3 L 147.4 -17.3 L 147.4 -17.3 Q 146.3 -16.8 145.1 -16.8 L 145.1 -16.8 L 135.4 -16.8 L 135.4 -16.8 Q 134.1 -16.8 133 -17.3 L 133 -17.3 L 133 -17.3 Q 131.9 -17.8 131 -18.6 L 131 -18.6 L 131 -18.6 Q 130.2 -19.5 129.7 -20.6 L 129.7 -20.6 L 129.7 -20.6 Q 129.3 -21.7 129.3 -23 L 129.3 -23 Z M 135.4 -31.4 L 135.4 -23 L 151.3 -23 L 151.3 -31.4 L 135.4 -31.4 Z M 167.7 -24.3 L 167.7 -44 L 167.7 -44 Q 167.7 -45.2 168.1 -46.4 L 168.1 -46.4 L 168.1 -46.4 Q 168.6 -47.5 169.5 -48.3 L 169.5 -48.3 L 169.5 -48.3 Q 170.3 -49.1 171.4 -49.6 L 171.4 -49.6 L 171.4 -49.6 Q 172.5 -50.1 173.8 -50.1 L 173.8 -50.1 L 184.8 -50.1 L 184.8 -50.1 Q 186 -50.1 187.1 -49.7 L 187.1 -49.7 L 187.1 -49.7 Q 188.2 -49.2 189 -48.4 L 189 -48.4 L 189 -48.4 Q 189.9 -47.6 190.4 -46.5 L 190.4 -46.5 L 190.4 -46.5 Q 190.9 -45.5 190.9 -44.2 L 190.9 -44.2 L 190.9 -50.1 L 197.1 -50.1 L 197.1 -9.6 L 197.1 -9.6 Q 197.1 -8.3 196.6 -7.1 L 196.6 -7.1 L 196.6 -7.1 Q 196.1 -6 195.3 -5.2 L 195.3 -5.2 L 195.3 -5.2 Q 194.5 -4.4 193.3 -3.9 L 193.3 -3.9 L 193.3 -3.9 Q 192.2 -3.4 190.9 -3.4 L 190.9 -3.4 L 171.5 -3.4 L 171.5 -9.6 L 190.9 -9.6 L 190.9 -18.1 L 173.8 -18.1 L 173.8 -18.1 Q 172.5 -18.1 171.4 -18.6 L 171.4 -18.6 L 171.4 -18.6 Q 170.3 -19.1 169.5 -19.9 L 169.5 -19.9 L 169.5 -19.9 Q 168.6 -20.7 168.1 -21.9 L 168.1 -21.9 L 168.1 -21.9 Q 167.7 -23 167.7 -24.3 L 167.7 -24.3 Z M 173.8 -24.3 L 190.9 -24.3 L 190.9 -44 L 173.8 -44 L 173.8 -24.3 Z M 235.5 -44 L 235.5 -30.3 L 213.5 -30.3 L 213.5 -23 L 235.5 -23 L 235.5 -16.8 L 213.5 -16.8 L 213.5 -16.8 Q 212.2 -16.8 211.1 -17.3 L 211.1 -17.3 L 211.1 -17.3 Q 210 -17.8 209.1 -18.6 L 209.1 -18.6 L 209.1 -18.6 Q 208.3 -19.5 207.8 -20.6 L 207.8 -20.6 L 207.8 -20.6 Q 207.3 -21.7 207.3 -23 L 207.3 -23 L 207.3 -44 L 207.3 -44 Q 207.3 -45.2 207.8 -46.4 L 207.8 -46.4 L 207.8 -46.4 Q 208.3 -47.5 209.1 -48.3 L 209.1 -48.3 L 209.1 -48.3 Q 210 -49.1 211.1 -49.6 L 211.1 -49.6 L 211.1 -49.6 Q 212.2 -50.1 213.5 -50.1 L 213.5 -50.1 L 229.3 -50.1 L 229.3 -50.1 Q 230.6 -50.1 231.8 -49.6 L 231.8 -49.6 L 231.8 -49.6 Q 232.9 -49.1 233.7 -48.3 L 233.7 -48.3 L 233.7 -48.3 Q 234.5 -47.5 235 -46.4 L 235 -46.4 L 235 -46.4 Q 235.5 -45.2 235.5 -44 L 235.5 -44 Z M 229.3 -44 L 213.5 -44 L 213.5 -36.5 L 229.3 -36.5 L 229.3 -44 Z M 245.1 -23 L 265.8 -23 L 265.8 -30.7 L 251.3 -30.7 L 251.3 -30.7 Q 250 -30.7 248.8 -31.2 L 248.8 -31.2 L 248.8 -31.2 Q 247.7 -31.7 246.9 -32.5 L 246.9 -32.5 L 246.9 -32.5 Q 246.1 -33.3 245.6 -34.5 L 245.6 -34.5 L 245.6 -34.5 Q 245.1 -35.6 245.1 -36.9 L 245.1 -36.9 L 245.1 -44 L 245.1 -44 Q 245.1 -45.2 245.6 -46.4 L 245.6 -46.4 L 245.6 -46.4 Q 246.1 -47.5 246.9 -48.3 L 246.9 -48.3 L 246.9 -48.3 Q 247.7 -49.1 248.8 -49.6 L 248.8 -49.6 L 248.8 -49.6 Q 250 -50.1 251.3 -50.1 L 251.3 -50.1 L 270.7 -50.1 L 270.7 -44 L 251.3 -44 L 251.3 -36.9 L 265.8 -36.9 L 265.8 -36.9 Q 267.1 -36.9 268.2 -36.4 L 268.2 -36.4 L 268.2 -36.4 Q 269.3 -35.9 270.2 -35.1 L 270.2 -35.1 L 270.2 -35.1 Q 271 -34.2 271.5 -33.1 L 271.5 -33.1 L 271.5 -33.1 Q 272 -32 272 -30.7 L 272 -30.7 L 272 -23 L 272 -23 Q 272 -21.7 271.5 -20.6 L 271.5 -20.6 L 271.5 -20.6 Q 271 -19.5 270.2 -18.6 L 270.2 -18.6 L 270.2 -18.6 Q 269.3 -17.8 268.2 -17.3 L 268.2 -17.3 L 268.2 -17.3 Q 267.1 -16.8 265.8 -16.8 L 265.8 -16.8 L 245.1 -16.8 L 245.1 -23 Z M 301.4 -23.2 L 301.4 -55.2 L 301.4 -55.2 Q 301.4 -56.6 301.9 -57.7 L 301.9 -57.7 L 301.9 -57.7 Q 302.4 -58.9 303.3 -59.8 L 303.3 -59.8 L 303.3 -59.8 Q 304.2 -60.6 305.3 -61.1 L 305.3 -61.1 L 305.3 -61.1 Q 306.5 -61.6 307.8 -61.6 L 307.8 -61.6 L 332.1 -61.6 L 332.1 -61.6 Q 333.4 -61.6 334.6 -61.1 L 334.6 -61.1 L 334.6 -61.1 Q 335.8 -60.6 336.7 -59.8 L 336.7 -59.8 L 336.7 -59.8 Q 337.5 -58.9 338 -57.7 L 338 -57.7 L 338 -57.7 Q 338.5 -56.6 338.5 -55.2 L 338.5 -55.2 L 338.5 -49.5 L 332.1 -49.5 L 332.1 -55.2 L 307.8 -55.2 L 307.8 -23.2 L 332.1 -23.2 L 332.1 -34.1 L 320 -34.1 L 320 -40.5 L 338.5 -40.5 L 338.5 -23.2 L 338.5 -23.2 Q 338.5 -21.9 338 -20.8 L 338 -20.8 L 338 -20.8 Q 337.5 -19.6 336.7 -18.7 L 336.7 -18.7 L 336.7 -18.7 Q 335.8 -17.8 334.6 -17.3 L 334.6 -17.3 L 334.6 -17.3 Q 333.4 -16.8 332.1 -16.8 L 332.1 -16.8 L 307.8 -16.8 L 307.8 -16.8 Q 306.5 -16.8 305.3 -17.3 L 305.3 -17.3 L 305.3 -17.3 Q 304.2 -17.8 303.3 -18.7 L 303.3 -18.7 L 303.3 -18.7 Q 302.4 -19.6 301.9 -20.8 L 301.9 -20.8 L 301.9 -20.8 Q 301.4 -21.9 301.4 -23.2 L 301.4 -23.2 Z M 349.4 -23 L 349.4 -31.4 L 349.4 -31.4 Q 349.4 -32.6 349.9 -33.8 L 349.9 -33.8 L 349.9 -33.8 Q 350.4 -34.9 351.2 -35.7 L 351.2 -35.7 L 351.2 -35.7 Q 352 -36.6 353.2 -37 L 353.2 -37 L 353.2 -37 Q 354.3 -37.5 355.5 -37.5 L 355.5 -37.5 L 371.4 -37.5 L 371.4 -44 L 351.3 -44 L 351.3 -50.1 L 371.4 -50.1 L 371.4 -50.1 Q 372.7 -50.1 373.8 -49.6 L 373.8 -49.6 L 373.8 -49.6 Q 374.9 -49.1 375.8 -48.3 L 375.8 -48.3 L 375.8 -48.3 Q 376.6 -47.5 377.1 -46.4 L 377.1 -46.4 L 377.1 -46.4 Q 377.6 -45.2 377.6 -44 L 377.6 -44 L 377.6 -16.8 L 371.4 -16.8 L 371.4 -22.5 L 371.4 -22.5 Q 371.3 -21.3 370.8 -20.3 L 370.8 -20.3 L 370.8 -20.3 Q 370.3 -19.2 369.4 -18.5 L 369.4 -18.5 L 369.4 -18.5 Q 368.6 -17.7 367.5 -17.3 L 367.5 -17.3 L 367.5 -17.3 Q 366.5 -16.8 365.3 -16.8 L 365.3 -16.8 L 355.5 -16.8 L 355.5 -16.8 Q 354.3 -16.8 353.2 -17.3 L 353.2 -17.3 L 353.2 -17.3 Q 352 -17.8 351.2 -18.6 L 351.2 -18.6 L 351.2 -18.6 Q 350.4 -19.5 349.9 -20.6 L 349.9 -20.6 L 349.9 -20.6 Q 349.4 -21.7 349.4 -23 L 349.4 -23 Z M 355.5 -31.4 L 355.5 -23 L 371.4 -23 L 371.4 -31.4 L 355.5 -31.4 Z M 387.8 -62.9 L 393.9 -62.9 L 393.9 -16.8 L 387.8 -16.8 L 387.8 -62.9 Z M 404.2 -62.9 L 410.3 -62.9 L 410.3 -16.8 L 404.2 -16.8 L 404.2 -62.9 Z M 448.7 -44 L 448.7 -30.3 L 426.7 -30.3 L 426.7 -23 L 448.7 -23 L 448.7 -16.8 L 426.7 -16.8 L 426.7 -16.8 Q 425.4 -16.8 424.3 -17.3 L 424.3 -17.3 L 424.3 -17.3 Q 423.2 -17.8 422.4 -18.6 L 422.4 -18.6 L 422.4 -18.6 Q 421.5 -19.5 421 -20.6 L 421 -20.6 L 421 -20.6 Q 420.6 -21.7 420.6 -23 L 420.6 -23 L 420.6 -44 L 420.6 -44 Q 420.6 -45.2 421 -46.4 L 421 -46.4 L 421 -46.4 Q 421.5 -47.5 422.4 -48.3 L 422.4 -48.3 L 422.4 -48.3 Q 423.2 -49.1 424.3 -49.6 L 424.3 -49.6 L 424.3 -49.6 Q 425.4 -50.1 426.7 -50.1 L 426.7 -50.1 L 442.6 -50.1 L 442.6 -50.1 Q 443.8 -50.1 445 -49.6 L 445 -49.6 L 445 -49.6 Q 446.1 -49.1 446.9 -48.3 L 446.9 -48.3 L 446.9 -48.3 Q 447.8 -47.5 448.2 -46.4 L 448.2 -46.4 L 448.2 -46.4 Q 448.7 -45.2 448.7 -44 L 448.7 -44 Z M 442.6 -44 L 426.7 -44 L 426.7 -36.5 L 442.6 -36.5 L 442.6 -44 Z M 477.8 -44 L 465.1 -44 L 465.1 -16.8 L 459 -16.8 L 459 -50.1 L 465.1 -50.1 L 465.1 -44.2 L 465.1 -44.2 Q 465.2 -45.5 465.7 -46.5 L 465.7 -46.5 L 465.7 -46.5 Q 466.2 -47.6 467 -48.4 L 467 -48.4 L 467 -48.4 Q 467.8 -49.2 468.9 -49.7 L 468.9 -49.7 L 468.9 -49.7 Q 470 -50.1 471.3 -50.1 L 471.3 -50.1 L 477.8 -50.1 L 477.8 -50.1 Q 479.1 -50.1 480.2 -49.6 L 480.2 -49.6 L 480.2 -49.6 Q 481.3 -49.1 482.1 -48.3 L 482.1 -48.3 L 482.1 -48.3 Q 483 -47.5 483.5 -46.4 L 483.5 -46.4 L 483.5 -46.4 Q 483.9 -45.2 483.9 -44 L 483.9 -44 L 483.9 -38.3 L 477.8 -38.3 L 477.8 -44 Z M 500 -3.4 L 493.8 -3.4 L 500.8 -19.8 L 487.8 -50.1 L 494.2 -50.1 L 503.9 -27.2 L 513.7 -50.1 L 520.1 -50.1 L 500 -3.4 Z" fill="#5ceeee"></path></g></g><style>text {
  font-size: 64px;
  font-family: Arial Black;
  dominant-baseline: central;
  text-anchor: middle;
}</style></svg>